# xmcd
#
# Track frame offsets:
#	150
#	16200
#	32075
#	51200
#	82225
#	102275
#	116625
#	131500
#
# Disc length: 1930 seconds
#
# Revision: 1
# Processed by: cddbd v1.5.1PL0 Copyright (c) Steve Scherf et al.
# Submitted via: audiograbber 1.83.01
#
DISCID=65078808
DTITLE=Jay Gordon - Blues Infested
DYEAR=1994
DGENRE=Electric Blues
TTITLE0=Voodoo Boogie
TTITLE1=Mississippi Mud
TTITLE2=Can't Shake This Feelin
TTITLE3=Storm In Chi Town
TTITLE4=Sweetheart Blues
TTITLE5=Midnight Lamp
TTITLE6=Boogie In The Wine
TTITLE7=Will's Thang (Inst.)
EXTD=
EXTT0=
EXTT1=
EXTT2=
EXTT3=
EXTT4=
EXTT5=
EXTT6=
EXTT7=
PLAYORDER=
